<?xml version="1.0" standalone="no"?>
<!DOCTYPE svg PUBLIC "-//W3C//DTD SVG 1.1//EN" "http://www.w3.org/Graphics/SVG/1.1/DTD/svg11.dtd">
<svg width="20mm" height="20mm" viewBox="-10 -10 20 20" xmlns="http://www.w3.org/2000/svg" version="1.1">
<title>OpenSCAD Model</title>
<path d="
M 10,-0 L 9.78148,-2.07912 L 9.13545,-4.06737 L 8.09017,-5.87785 L 6.69131,-7.43145 L 5,-8.66025
 L 3.09017,-9.51057 L 1.04528,-9.94522 L -1.04528,-9.94522 L -3.09017,-9.51057 L -5,-8.66025 L -6.69131,-7.43145
 L -8.09017,-5.87785 L -9.13545,-4.06737 L -9.78148,-2.07912 L -10,0 L -9.78148,2.07912 L -9.13545,4.06737
 L -8.09017,5.87785 L -6.69131,7.43145 L -5,8.66025 L -3.09017,9.51057 L -1.04528,9.94522 L 1.04528,9.94522
 L 3.09017,9.51057 L 5,8.66025 L 6.69131,7.43145 L 8.09017,5.87785 L 9.13545,4.06737 L 9.78148,2.07912
 z
" stroke="black" fill="lightgray" stroke-width="0.5"/>
</svg>
