<?xml version="1.0" standalone="no"?>
<!DOCTYPE svg PUBLIC "-//W3C//DTD SVG 1.1//EN" "http://www.w3.org/Graphics/SVG/1.1/DTD/svg11.dtd">
<svg width="25mm" height="40mm" viewBox="-20 -20 25 40" xmlns="http://www.w3.org/2000/svg" version="1.1">
<title>OpenSCAD Model</title>
<path d="
M 5,19.272 L 3.81966,19.0211 L 0,17.3205 L -3.3826,14.8629 L -6.18033,11.7557 L -8.2709,8.13472
 L -9.56294,4.15823 L -10,-0 L -9.56294,-4.15823 L -8.2709,-8.13472 L -6.18033,-11.7557 L -3.3826,-14.8629
 L 0,-17.3205 L 3.81966,-19.0211 L 5,-19.272 L 2.09056,-19.8904 L -2.09056,-19.8904 L -6.18033,-19.0211
 L -10,-17.3205 L -13.3826,-14.8629 L -16.1803,-11.7557 L -18.2709,-8.13472 L -19.5629,-4.15823 L -20,-0
 L -19.5629,4.15823 L -18.2709,8.13472 L -16.1803,11.7557 L -13.3826,14.8629 L -10,17.3205 L -6.18033,19.0211
 L -2.09056,19.8904 L 2.09056,19.8904 z
" stroke="black" fill="lightgray" stroke-width="0.5"/>
</svg>
